<svg xmlns="http://www.w3.org/2000/svg" xmlns:xlink="http://www.w3.org/1999/xlink" width="500" zoomAndPan="magnify" viewBox="0 0 375 374.999991" height="500" preserveAspectRatio="xMidYMid meet" version="1.0"><defs><g/><clipPath id="fd0c9e0f1a"><path d="M 116 114.121094 L 164.933594 114.121094 L 164.933594 167 L 116 167 Z M 116 114.121094 " clip-rule="nonzero"/></clipPath><clipPath id="c0a50dba45"><rect x="0" width="58" y="0" height="45"/></clipPath><clipPath id="61abc8e9ed"><rect x="0" width="90" y="0" height="45"/></clipPath><clipPath id="6047d72d6b"><path d="M 0.28125 2 L 7 2 L 7 9 L 0.28125 9 Z M 0.28125 2 " clip-rule="nonzero"/></clipPath><clipPath id="54bddb0587"><path d="M 0.28125 13 L 8 13 L 8 20 L 0.28125 20 Z M 0.28125 13 " clip-rule="nonzero"/></clipPath><clipPath id="7e0c533abe"><rect x="0" width="150" y="0" height="23"/></clipPath></defs><path fill="#000000" d="M 136.902344 157.675781 C 136.902344 145.417969 127.140625 135.484375 115.097656 135.484375 C 106.804688 135.484375 99.597656 140.191406 95.910156 147.125 L 72.9375 173.738281 C 71.84375 175.011719 72.167969 177.144531 73.660156 178.476562 L 100.539062 202.503906 C 102.03125 203.835938 104.148438 203.890625 105.25 202.621094 L 130.398438 173.480469 C 134.414062 169.453125 136.902344 163.859375 136.902344 157.675781 Z M 136.902344 157.675781 " fill-opacity="1" fill-rule="nonzero"/><path fill="#3f79b8" d="M 109.625 192.117188 L 82.269531 168.089844 C 80.75 166.757812 78.59375 166.703125 77.476562 167.972656 L 50.117188 199.121094 C 49 200.394531 49.332031 202.527344 50.851562 203.859375 L 51.191406 204.160156 C 51.257812 210.117188 54.226562 216.585938 59.738281 221.457031 C 65.296875 226.378906 72.15625 228.527344 78.113281 227.808594 L 78.203125 227.886719 C 79.722656 229.222656 81.882812 229.273438 82.996094 228.007812 L 85.855469 224.753906 C 86.5625 224.210938 87.226562 223.59375 87.832031 222.910156 C 88.457031 222.203125 89 221.445312 89.460938 220.648438 L 110.359375 196.859375 C 111.476562 195.585938 111.144531 193.453125 109.625 192.117188 Z M 109.625 192.117188 " fill-opacity="1" fill-rule="nonzero"/><path fill="#000000" d="M 80.839844 229.808594 C 79.816406 229.808594 78.742188 229.449219 77.835938 228.730469 C 71.523438 229.367188 64.566406 226.914062 59.152344 222.125 C 53.796875 217.390625 50.511719 210.855469 50.3125 204.570312 L 50.265625 204.527344 C 48.375 202.863281 48.007812 200.175781 49.453125 198.535156 L 76.808594 167.390625 C 77.527344 166.570312 78.5625 166.140625 79.746094 166.167969 C 80.863281 166.195312 81.96875 166.640625 82.859375 167.425781 L 110.214844 191.453125 C 111.105469 192.234375 111.691406 193.277344 111.863281 194.378906 C 112.046875 195.539062 111.75 196.628906 111.03125 197.445312 L 90.195312 221.167969 C 89.707031 222 89.136719 222.785156 88.507812 223.496094 C 87.894531 224.191406 87.210938 224.832031 86.480469 225.402344 L 83.679688 228.589844 C 82.953125 229.40625 81.921875 229.808594 80.839844 229.808594 Z M 78.402344 226.875 L 78.792969 227.214844 C 79.925781 228.214844 81.546875 228.304688 82.332031 227.414062 L 85.316406 224.042969 C 85.984375 223.53125 86.605469 222.949219 87.164062 222.316406 C 87.734375 221.667969 88.25 220.957031 88.691406 220.195312 L 88.792969 220.054688 L 109.6875 196.265625 C 110.050781 195.855469 110.195312 195.277344 110.097656 194.644531 C 109.988281 193.953125 109.613281 193.292969 109.035156 192.785156 L 81.679688 168.757812 C 81.101562 168.25 80.394531 167.960938 79.699219 167.945312 C 79.0625 167.929688 78.507812 168.144531 78.144531 168.5625 L 50.789062 199.710938 C 50.007812 200.601562 50.304688 202.195312 51.441406 203.191406 L 52.082031 203.757812 L 52.085938 204.15625 C 52.152344 210.066406 55.234375 216.285156 60.332031 220.792969 C 65.484375 225.351562 72.089844 227.640625 78.011719 226.925781 Z M 78.402344 226.875 " fill-opacity="1" fill-rule="nonzero"/><path fill="#3f79b8" d="M 108.164062 196.910156 L 77.699219 170.15625 C 76.179688 168.824219 76.027344 166.484375 77.367188 164.96875 L 78.957031 163.15625 C 80.292969 161.632812 82.628906 161.484375 84.148438 162.820312 L 114.613281 189.578125 C 116.132812 190.910156 116.285156 193.25 114.949219 194.765625 L 113.355469 196.578125 C 112.019531 198.097656 109.679688 198.25 108.164062 196.910156 Z M 108.164062 196.910156 " fill-opacity="1" fill-rule="nonzero"/><path fill="#000000" d="M 110.585938 198.714844 C 109.515625 198.714844 108.4375 198.339844 107.574219 197.582031 L 77.113281 170.824219 C 75.21875 169.164062 75.035156 166.273438 76.695312 164.375 L 78.285156 162.5625 C 79.089844 161.648438 80.203125 161.101562 81.421875 161.027344 C 82.648438 160.949219 83.820312 161.347656 84.734375 162.148438 L 115.199219 188.90625 C 117.089844 190.570312 117.277344 193.460938 115.617188 195.355469 L 114.023438 197.167969 C 113.121094 198.191406 111.859375 198.714844 110.585938 198.714844 Z M 81.726562 162.800781 C 81.664062 162.800781 81.601562 162.800781 81.539062 162.804688 C 80.792969 162.851562 80.113281 163.183594 79.625 163.742188 L 78.035156 165.554688 C 77.019531 166.710938 77.132812 168.476562 78.289062 169.488281 L 108.75 196.242188 C 109.90625 197.257812 111.671875 197.144531 112.6875 195.988281 L 114.28125 194.175781 C 115.292969 193.019531 115.179688 191.253906 114.023438 190.242188 L 83.558594 163.484375 C 83.050781 163.039062 82.402344 162.800781 81.726562 162.800781 Z M 81.726562 162.800781 " fill-opacity="1" fill-rule="nonzero"/><path fill="#3f79b8" d="M 90.65625 255.941406 L 86.707031 255.941406 C 84.746094 255.941406 83.144531 254.339844 83.144531 252.378906 L 83.144531 201.550781 C 83.144531 199.589844 84.746094 197.988281 86.707031 197.988281 L 90.65625 197.988281 C 92.617188 197.988281 94.222656 199.589844 94.222656 201.550781 L 94.222656 252.378906 C 94.222656 254.339844 92.617188 255.941406 90.65625 255.941406 Z M 90.65625 255.941406 " fill-opacity="1" fill-rule="nonzero"/><path fill="#000000" d="M 89.945312 256.835938 L 87.421875 256.835938 C 84.574219 256.835938 82.253906 254.515625 82.253906 251.664062 L 82.253906 202.261719 C 82.253906 199.414062 84.570312 197.09375 87.421875 197.09375 L 89.945312 197.09375 C 92.796875 197.09375 95.117188 199.410156 95.117188 202.261719 L 95.117188 251.664062 C 95.113281 254.515625 92.796875 256.835938 89.945312 256.835938 Z M 87.421875 198.878906 C 85.554688 198.878906 84.035156 200.394531 84.035156 202.265625 L 84.035156 251.667969 C 84.035156 253.535156 85.554688 255.054688 87.421875 255.054688 L 89.945312 255.054688 C 91.8125 255.054688 93.332031 253.535156 93.332031 251.667969 L 93.332031 202.265625 C 93.332031 200.398438 91.816406 198.878906 89.945312 198.878906 Z M 87.421875 198.878906 " fill-opacity="1" fill-rule="nonzero"/><path fill="#3f79b8" d="M 122.820312 260 L 57.269531 260 C 54.988281 260 53.132812 258.625 53.132812 256.945312 L 53.132812 254.9375 C 53.132812 253.257812 54.996094 251.882812 57.269531 251.882812 L 122.816406 251.882812 C 125.097656 251.882812 126.953125 253.257812 126.953125 254.9375 L 126.953125 256.945312 C 126.957031 258.625 125.097656 260 122.820312 260 Z M 122.820312 260 " fill-opacity="1" fill-rule="nonzero"/><path fill="#000000" d="M 122.820312 260.890625 L 57.269531 260.890625 C 54.496094 260.890625 52.242188 259.121094 52.242188 256.945312 L 52.242188 254.9375 C 52.242188 252.761719 54.496094 250.992188 57.269531 250.992188 L 122.816406 250.992188 C 125.589844 250.992188 127.84375 252.761719 127.84375 254.9375 L 127.84375 256.945312 C 127.847656 259.121094 125.59375 260.890625 122.820312 260.890625 Z M 57.269531 252.777344 C 55.511719 252.777344 54.023438 253.769531 54.023438 254.941406 L 54.023438 256.945312 C 54.023438 258.121094 55.511719 259.113281 57.269531 259.113281 L 122.816406 259.113281 C 124.578125 259.113281 126.0625 258.121094 126.0625 256.945312 L 126.0625 254.941406 C 126.0625 253.769531 124.578125 252.777344 122.816406 252.777344 Z M 57.269531 252.777344 " fill-opacity="1" fill-rule="nonzero"/><path fill="#f3be4c" d="M 83.839844 182.785156 C 83.839844 183.269531 83.792969 183.75 83.695312 184.226562 C 83.601562 184.703125 83.460938 185.164062 83.277344 185.613281 C 83.089844 186.058594 82.863281 186.484375 82.59375 186.890625 C 82.324219 187.292969 82.019531 187.664062 81.675781 188.007812 C 81.332031 188.351562 80.960938 188.65625 80.554688 188.925781 C 80.152344 189.195312 79.726562 189.421875 79.28125 189.609375 C 78.832031 189.792969 78.371094 189.933594 77.894531 190.03125 C 77.417969 190.125 76.9375 190.171875 76.453125 190.171875 C 75.96875 190.171875 75.488281 190.125 75.011719 190.03125 C 74.535156 189.933594 74.074219 189.792969 73.628906 189.609375 C 73.179688 189.421875 72.753906 189.195312 72.351562 188.925781 C 71.945312 188.65625 71.574219 188.351562 71.230469 188.007812 C 70.886719 187.664062 70.582031 187.292969 70.3125 186.890625 C 70.042969 186.484375 69.816406 186.058594 69.628906 185.613281 C 69.445312 185.164062 69.304688 184.703125 69.210938 184.226562 C 69.117188 183.75 69.066406 183.269531 69.066406 182.785156 C 69.066406 182.300781 69.117188 181.820312 69.210938 181.34375 C 69.304688 180.871094 69.445312 180.40625 69.628906 179.960938 C 69.816406 179.511719 70.042969 179.085938 70.3125 178.683594 C 70.582031 178.28125 70.886719 177.90625 71.230469 177.5625 C 71.574219 177.222656 71.945312 176.914062 72.351562 176.644531 C 72.753906 176.375 73.179688 176.148438 73.628906 175.964844 C 74.074219 175.777344 74.535156 175.636719 75.011719 175.542969 C 75.488281 175.449219 75.96875 175.402344 76.453125 175.402344 C 76.9375 175.402344 77.417969 175.449219 77.894531 175.542969 C 78.371094 175.636719 78.832031 175.777344 79.28125 175.964844 C 79.726562 176.148438 80.152344 176.375 80.554688 176.644531 C 80.960938 176.914062 81.332031 177.222656 81.675781 177.5625 C 82.019531 177.90625 82.324219 178.28125 82.59375 178.683594 C 82.863281 179.085938 83.089844 179.511719 83.277344 179.960938 C 83.460938 180.40625 83.601562 180.871094 83.695312 181.34375 C 83.792969 181.820312 83.839844 182.300781 83.839844 182.785156 Z M 83.839844 182.785156 " fill-opacity="1" fill-rule="nonzero"/><path fill="#000000" d="M 76.453125 191.0625 C 71.890625 191.0625 68.175781 187.347656 68.175781 182.785156 C 68.175781 178.222656 71.890625 174.507812 76.453125 174.507812 C 81.015625 174.507812 84.730469 178.222656 84.730469 182.785156 C 84.730469 187.347656 81.019531 191.0625 76.453125 191.0625 Z M 76.453125 176.292969 C 72.875 176.292969 69.960938 179.207031 69.960938 182.785156 C 69.960938 186.367188 72.875 189.28125 76.453125 189.28125 C 80.03125 189.28125 82.949219 186.367188 82.949219 182.785156 C 82.949219 179.207031 80.035156 176.292969 76.453125 176.292969 Z M 76.453125 176.292969 " fill-opacity="1" fill-rule="nonzero"/><g clip-path="url(#fd0c9e0f1a)"><path fill="#f3be4c" d="M 143.480469 114.828125 C 143.773438 114.253906 144.5625 114.132812 145.089844 114.410156 C 145.679688 114.730469 145.765625 115.460938 145.507812 116.015625 C 144.585938 117.929688 143.660156 119.84375 142.738281 121.757812 C 142.449219 122.332031 141.65625 122.453125 141.132812 122.175781 C 140.539062 121.855469 140.453125 121.125 140.714844 120.570312 C 141.648438 118.609375 142.539062 116.710938 143.480469 114.828125 Z M 138.335938 126.503906 C 136.488281 130.332031 134.691406 134.175781 132.847656 138.003906 C 132.589844 138.5625 132.6875 139.242188 133.265625 139.613281 C 133.757812 139.90625 134.582031 139.765625 134.871094 139.195312 C 136.71875 135.363281 138.519531 131.519531 140.363281 127.691406 C 140.621094 127.136719 140.523438 126.457031 139.945312 126.082031 C 139.449219 125.792969 138.625 125.929688 138.335938 126.503906 Z M 127.746094 134.417969 C 129.25 129.1875 130.769531 123.988281 132.292969 118.785156 C 132.714844 117.359375 130.480469 116.738281 130.058594 118.164062 C 128.535156 123.367188 127.015625 128.566406 125.511719 133.796875 C 125.089844 135.226562 127.324219 135.84375 127.746094 134.417969 Z M 119.019531 130.796875 C 118.894531 127.675781 118.734375 124.570312 118.621094 121.480469 C 118.589844 120.847656 118.132812 120.328125 117.460938 120.296875 C 116.886719 120.292969 116.242188 120.824219 116.277344 121.457031 C 116.402344 124.582031 116.5625 127.683594 116.675781 130.773438 C 116.707031 131.410156 117.164062 131.929688 117.835938 131.960938 C 118.441406 131.945312 119.035156 131.40625 119.019531 130.796875 Z M 139.027344 145.96875 C 142.453125 144.28125 145.894531 142.617188 149.351562 140.90625 C 149.929688 140.621094 150.09375 139.832031 149.796875 139.304688 C 149.464844 138.714844 148.769531 138.574219 148.195312 138.859375 C 144.769531 140.546875 141.328125 142.207031 137.871094 143.921875 C 137.292969 144.207031 137.128906 144.996094 137.425781 145.523438 C 137.761719 146.117188 138.457031 146.253906 139.027344 145.96875 Z M 156.222656 137.347656 C 158.902344 136.078125 161.566406 134.777344 164.246094 133.507812 C 164.820312 133.222656 164.988281 132.433594 164.691406 131.902344 C 164.355469 131.316406 163.679688 131.207031 163.085938 131.457031 C 160.40625 132.730469 157.746094 134.03125 155.066406 135.300781 C 154.488281 135.585938 154.320312 136.375 154.621094 136.902344 C 154.953125 137.496094 155.648438 137.632812 156.222656 137.347656 Z M 143.835938 154.105469 C 146.242188 153.726562 148.617188 153.363281 151.023438 152.984375 C 151.628906 152.886719 152.019531 152.132812 151.863281 151.570312 C 151.65625 150.910156 151.078125 150.617188 150.449219 150.730469 C 148.042969 151.109375 145.664062 151.472656 143.257812 151.851562 C 142.65625 151.945312 142.265625 152.703125 142.421875 153.265625 C 142.613281 153.894531 143.183594 154.183594 143.835938 154.105469 Z M 143.390625 163.445312 C 143.664062 163.496094 143.917969 163.515625 144.226562 163.546875 C 144.386719 163.539062 144.542969 163.53125 144.667969 163.460938 C 144.808594 163.421875 144.964844 163.332031 145.054688 163.203125 C 145.160156 163.101562 145.25 162.96875 145.289062 162.824219 C 145.347656 162.707031 145.386719 162.5625 145.378906 162.402344 C 145.355469 162.292969 145.351562 162.214844 145.328125 162.105469 C 145.285156 161.882812 145.179688 161.695312 145.03125 161.574219 C 144.949219 161.5 144.882812 161.457031 144.796875 161.378906 C 144.617188 161.277344 144.421875 161.222656 144.214844 161.21875 C 143.941406 161.167969 143.6875 161.148438 143.382812 161.117188 C 143.21875 161.125 143.0625 161.132812 142.9375 161.203125 C 142.796875 161.242188 142.640625 161.332031 142.550781 161.460938 C 142.445312 161.5625 142.355469 161.695312 142.316406 161.84375 C 142.257812 161.957031 142.21875 162.105469 142.226562 162.261719 C 142.25 162.371094 142.253906 162.453125 142.277344 162.5625 C 142.320312 162.78125 142.425781 162.96875 142.574219 163.089844 C 142.65625 163.164062 142.722656 163.207031 142.808594 163.285156 C 142.984375 163.386719 143.183594 163.441406 143.390625 163.445312 Z M 149.644531 164.660156 C 152.769531 165.265625 155.898438 165.871094 159.023438 166.476562 C 159.621094 166.589844 160.292969 166.332031 160.449219 165.667969 C 160.582031 165.105469 160.289062 164.367188 159.644531 164.242188 C 156.515625 163.636719 153.390625 163.03125 150.261719 162.425781 C 149.664062 162.3125 148.992188 162.570312 148.835938 163.234375 C 148.703125 163.796875 149.03125 164.511719 149.644531 164.660156 Z M 149.644531 164.660156 " fill-opacity="1" fill-rule="nonzero"/></g><path fill="#f3be4c" d="M 73.203125 141.222656 L 72.667969 141.214844 C 72.664062 141.324219 72.210938 152.066406 64.589844 152.066406 L 64.574219 152.601562 C 64.59375 152.601562 66.578125 152.726562 68.554688 154.113281 C 71.140625 155.925781 72.523438 159.101562 72.558594 163.289062 C 72.558594 163.375 72.558594 163.433594 72.558594 163.453125 L 73.09375 163.449219 C 73.09375 163.417969 73.09375 163.382812 73.09375 163.351562 C 73.097656 162.550781 73.21875 156.871094 75.933594 154.113281 C 76.917969 153.113281 78.148438 152.601562 79.585938 152.601562 L 79.609375 152.070312 C 79.347656 152.046875 73.203125 151.367188 73.203125 141.222656 Z M 73.203125 141.222656 " fill-opacity="1" fill-rule="nonzero"/><path fill="#f3be4c" d="M 67.027344 166.285156 L 63.929688 166.285156 L 63.929688 163.1875 C 63.929688 162.824219 63.632812 162.527344 63.265625 162.527344 L 63.050781 162.527344 C 62.6875 162.527344 62.390625 162.824219 62.390625 163.1875 L 62.390625 166.285156 L 59.292969 166.285156 C 58.925781 166.285156 58.628906 166.582031 58.628906 166.949219 L 58.628906 167.164062 C 58.628906 167.527344 58.925781 167.824219 59.292969 167.824219 L 62.390625 167.824219 L 62.390625 170.925781 C 62.390625 171.289062 62.6875 171.585938 63.050781 171.585938 L 63.265625 171.585938 C 63.632812 171.585938 63.929688 171.289062 63.929688 170.925781 L 63.929688 167.824219 L 67.027344 167.824219 C 67.394531 167.824219 67.691406 167.527344 67.691406 167.164062 L 67.691406 166.949219 C 67.691406 166.582031 67.390625 166.285156 67.027344 166.285156 Z M 67.027344 166.285156 " fill-opacity="1" fill-rule="nonzero"/><path fill="#f3be4c" d="M 104.324219 219.113281 C 103.332031 220.070312 101.816406 218.558594 102.8125 217.601562 C 103.328125 217.105469 103.863281 216.632812 104.421875 216.191406 C 105.574219 215.28125 106.792969 214.460938 108.09375 213.78125 C 109.285156 213.160156 110.496094 212.628906 111.839844 212.460938 C 113.042969 212.3125 114.320312 212.527344 115.234375 213.378906 C 116.3125 214.386719 116.453125 216.027344 115.929688 217.351562 C 115.375 218.738281 114.257812 219.683594 113.191406 220.671875 C 112.140625 221.648438 111.160156 222.710938 110.304688 223.863281 C 109.871094 224.449219 109.429688 225.046875 109.097656 225.695312 C 108.96875 225.949219 108.851562 226.234375 108.847656 226.523438 C 108.84375 226.769531 108.886719 226.863281 108.984375 227.003906 C 109.089844 227.160156 108.828125 226.859375 109.058594 227.101562 C 109.097656 227.140625 109.136719 227.179688 109.179688 227.21875 C 109.269531 227.296875 109.207031 227.246094 109.1875 227.230469 C 109.246094 227.277344 109.320312 227.316406 109.382812 227.355469 C 109.59375 227.476562 109.679688 227.5 109.957031 227.5625 C 110.347656 227.644531 110.90625 227.550781 111.414062 227.332031 C 112.046875 227.066406 112.621094 226.644531 113.175781 226.25 C 113.828125 225.785156 114.480469 225.3125 115.132812 224.84375 C 116.453125 223.890625 117.777344 222.933594 119.101562 221.984375 C 119.746094 221.523438 120.472656 221.085938 121.296875 221.113281 C 121.988281 221.132812 122.617188 221.445312 123.039062 221.992188 C 123.746094 222.910156 123.734375 224.269531 123.363281 225.328125 C 122.488281 227.8125 120.3125 229.636719 118.722656 231.65625 C 118.347656 232.125 118.003906 232.628906 117.703125 233.152344 C 117.546875 233.429688 117.417969 233.628906 117.371094 233.917969 C 117.347656 234.042969 117.355469 233.96875 117.367188 233.941406 C 117.332031 234.023438 117.429688 234.085938 117.375 234.007812 C 117.320312 233.925781 117.242188 233.859375 117.195312 233.789062 C 117.117188 233.785156 117.117188 233.78125 117.195312 233.78125 C 117.257812 233.777344 117.269531 233.777344 117.234375 233.785156 C 117.144531 233.804688 117.347656 233.753906 117.332031 233.757812 C 117.449219 233.726562 117.546875 233.691406 117.617188 233.660156 C 117.914062 233.523438 118.199219 233.347656 118.480469 233.183594 C 119.125 232.808594 119.753906 232.410156 120.371094 231.988281 C 120.953125 231.582031 121.515625 231.15625 122.058594 230.703125 C 122.617188 230.242188 123.144531 229.707031 123.792969 229.375 C 125.136719 228.691406 127.117188 229.074219 127.414062 230.773438 C 127.566406 231.648438 127.191406 232.460938 126.660156 233.132812 C 126.289062 233.601562 125.792969 233.976562 125.441406 234.457031 C 125.3125 234.632812 125.15625 234.917969 125.125 235.066406 C 125.121094 235.082031 125.09375 235.289062 125.132812 235.289062 C 125.109375 235.289062 124.902344 235.042969 125.050781 235.191406 C 125.011719 235.152344 124.917969 235.101562 125.035156 235.175781 C 124.925781 235.109375 124.886719 235.171875 125.007812 235.164062 C 125.222656 235.15625 124.847656 235.179688 125.058594 235.15625 C 124.929688 235.167969 124.9375 235.21875 125.03125 235.167969 C 125.007812 235.183594 124.917969 235.300781 124.964844 235.21875 C 125.058594 235.0625 124.8125 235.53125 124.824219 235.476562 C 124.804688 235.574219 124.816406 235.648438 124.832031 235.734375 C 124.726562 235.164062 124.984375 234.582031 125.578125 234.421875 C 126.101562 234.277344 126.785156 234.597656 126.894531 235.164062 C 127.027344 235.882812 126.804688 236.566406 126.175781 236.96875 C 125.023438 237.707031 123.394531 237.15625 123.054688 235.796875 C 122.644531 234.15625 123.894531 233.027344 124.875 231.933594 C 125.023438 231.769531 125.175781 231.574219 125.257812 231.382812 C 125.210938 231.492188 125.324219 231.1875 125.324219 231.1875 C 125.324219 231.1875 125.367188 231.222656 125.367188 231.226562 C 125.4375 231.097656 125.210938 231.144531 125.320312 231.1875 C 125.457031 231.246094 125.015625 231.144531 125.1875 231.15625 C 125.1875 231.15625 125.011719 231.171875 125.09375 231.152344 C 125.203125 231.121094 124.945312 231.191406 124.9375 231.195312 C 124.730469 231.269531 124.539062 231.402344 124.367188 231.53125 C 123.742188 232.011719 123.164062 232.550781 122.535156 233.03125 C 121.945312 233.488281 121.335938 233.917969 120.707031 234.324219 C 120.085938 234.726562 119.453125 235.117188 118.796875 235.453125 C 118.136719 235.792969 117.363281 236.054688 116.617188 235.855469 C 115.804688 235.636719 115.261719 234.894531 115.222656 234.0625 C 115.195312 233.351562 115.507812 232.675781 115.855469 232.074219 C 117.175781 229.753906 119.320312 228.058594 120.730469 225.808594 C 121.082031 225.242188 121.269531 224.949219 121.402344 224.398438 C 121.5 224.003906 121.515625 223.722656 121.375 223.328125 C 121.441406 223.519531 121.375 223.335938 121.347656 223.292969 C 121.269531 223.183594 121.382812 223.328125 121.382812 223.328125 C 121.390625 223.324219 121.183594 223.15625 121.402344 223.316406 C 121.371094 223.292969 121.320312 223.257812 121.285156 223.246094 C 121.160156 223.210938 121.324219 223.261719 121.324219 223.261719 C 120.960938 223.246094 121.289062 223.222656 121.214844 223.246094 C 121.128906 223.273438 121.050781 223.289062 120.96875 223.324219 C 120.277344 223.621094 119.648438 224.210938 119.042969 224.648438 C 117.695312 225.617188 116.351562 226.589844 115.003906 227.558594 C 113.820312 228.414062 112.589844 229.386719 111.105469 229.644531 C 109.804688 229.878906 108.308594 229.542969 107.425781 228.488281 C 106.320312 227.164062 106.664062 225.511719 107.511719 224.148438 C 108.304688 222.871094 109.261719 221.667969 110.277344 220.566406 C 110.792969 220.003906 111.332031 219.472656 111.894531 218.957031 C 112.410156 218.484375 112.957031 218.023438 113.398438 217.476562 C 113.742188 217.054688 114.03125 216.507812 114.078125 215.992188 C 114.125 215.46875 113.96875 215.09375 113.628906 214.824219 C 113.734375 214.90625 113.460938 214.730469 113.398438 214.699219 C 113.535156 214.765625 113.300781 214.664062 113.257812 214.652344 C 112.949219 214.5625 112.976562 214.566406 112.65625 214.554688 C 112.082031 214.539062 111.738281 214.601562 111.15625 214.769531 C 109.960938 215.113281 108.773438 215.789062 107.636719 216.503906 C 106.449219 217.253906 105.347656 218.132812 104.324219 219.113281 Z M 104.324219 219.113281 " fill-opacity="1" fill-rule="nonzero"/><path fill="#f3be4c" d="M 75.753906 236.089844 L 72.820312 236.089844 L 72.820312 233.15625 C 72.820312 232.808594 72.539062 232.523438 72.191406 232.523438 L 71.988281 232.523438 C 71.644531 232.523438 71.359375 232.808594 71.359375 233.15625 L 71.359375 236.089844 L 68.421875 236.089844 C 68.078125 236.089844 67.792969 236.371094 67.792969 236.71875 L 67.792969 236.921875 C 67.792969 237.265625 68.074219 237.550781 68.421875 237.550781 L 71.359375 237.550781 L 71.359375 240.488281 C 71.359375 240.832031 71.640625 241.117188 71.988281 241.117188 L 72.191406 241.117188 C 72.535156 241.117188 72.820312 240.835938 72.820312 240.488281 L 72.820312 237.550781 L 75.753906 237.550781 C 76.101562 237.550781 76.386719 237.269531 76.386719 236.921875 L 76.386719 236.71875 C 76.386719 236.371094 76.101562 236.089844 75.753906 236.089844 Z M 75.753906 236.089844 " fill-opacity="1" fill-rule="nonzero"/><g transform="matrix(1, 0, 0, 1, 142, 161)"><g clip-path="url(#c0a50dba45)"><g fill="#000000" fill-opacity="1"><g transform="translate(1.519614, 35.521018)"><g><path d="M 19.109375 -2.828125 C 19.648438 -1.429688 20.425781 -0.710938 21.4375 -0.671875 L 21.4375 0 C 20.539062 -0.0625 19.335938 -0.09375 17.828125 -0.09375 C 15.898438 -0.09375 14.460938 -0.0625 13.515625 0 L 13.515625 -0.671875 C 14.367188 -0.710938 14.976562 -0.816406 15.34375 -0.984375 C 15.71875 -1.160156 15.90625 -1.472656 15.90625 -1.921875 C 15.90625 -2.304688 15.769531 -2.832031 15.5 -3.5 L 13.453125 -9.03125 L 5.296875 -9.03125 L 3.90625 -5.453125 C 3.457031 -4.242188 3.234375 -3.328125 3.234375 -2.703125 C 3.234375 -2.003906 3.472656 -1.492188 3.953125 -1.171875 C 4.441406 -0.859375 5.179688 -0.691406 6.171875 -0.671875 L 6.171875 0 C 4.890625 -0.0625 3.597656 -0.09375 2.296875 -0.09375 C 1.285156 -0.09375 0.441406 -0.0625 -0.234375 0 L -0.234375 -0.671875 C 0.890625 -0.941406 1.773438 -1.921875 2.421875 -3.609375 L 10.34375 -24.03125 L 10.890625 -24.03125 Z M 13.171875 -9.703125 L 9.40625 -19.78125 L 5.5625 -9.703125 Z M 13.171875 -9.703125 "/></g></g></g><g fill="#000000" fill-opacity="1"><g transform="translate(22.749512, 35.521018)"><g><path d="M 10.015625 -23.1875 C 9.203125 -23.144531 8.609375 -23.054688 8.234375 -22.921875 C 7.867188 -22.785156 7.617188 -22.523438 7.484375 -22.140625 C 7.347656 -21.753906 7.28125 -21.140625 7.28125 -20.296875 L 7.28125 -3.578125 C 7.28125 -2.722656 7.347656 -2.101562 7.484375 -1.71875 C 7.617188 -1.332031 7.867188 -1.070312 8.234375 -0.9375 C 8.609375 -0.800781 9.203125 -0.710938 10.015625 -0.671875 L 10.015625 0 C 8.972656 -0.0625 7.546875 -0.09375 5.734375 -0.09375 C 3.796875 -0.09375 2.359375 -0.0625 1.421875 0 L 1.421875 -0.671875 C 2.222656 -0.710938 2.804688 -0.800781 3.171875 -0.9375 C 3.546875 -1.070312 3.800781 -1.332031 3.9375 -1.71875 C 4.070312 -2.101562 4.140625 -2.722656 4.140625 -3.578125 L 4.140625 -20.296875 C 4.140625 -21.140625 4.070312 -21.753906 3.9375 -22.140625 C 3.800781 -22.523438 3.546875 -22.785156 3.171875 -22.921875 C 2.804688 -23.054688 2.222656 -23.144531 1.421875 -23.1875 L 1.421875 -23.859375 C 2.359375 -23.796875 3.796875 -23.765625 5.734375 -23.765625 C 7.523438 -23.765625 8.953125 -23.796875 10.015625 -23.859375 Z M 10.015625 -23.1875 "/></g></g></g><g fill="#000000" fill-opacity="1"><g transform="translate(34.173222, 35.521018)"><g><path d="M 22.25 -1.6875 C 21.726562 -0.925781 21.207031 -0.375 20.6875 -0.03125 C 20.175781 0.300781 19.492188 0.46875 18.640625 0.46875 C 17.710938 0.46875 16.953125 0.203125 16.359375 -0.328125 C 15.765625 -0.867188 15.320312 -1.816406 15.03125 -3.171875 L 14.296875 -6.53125 C 14.023438 -7.707031 13.769531 -8.609375 13.53125 -9.234375 C 13.289062 -9.859375 12.9375 -10.363281 12.46875 -10.75 C 12 -11.132812 11.335938 -11.328125 10.484375 -11.328125 L 7.28125 -11.328125 L 7.28125 -3.578125 C 7.28125 -2.722656 7.347656 -2.101562 7.484375 -1.71875 C 7.617188 -1.332031 7.867188 -1.070312 8.234375 -0.9375 C 8.609375 -0.800781 9.203125 -0.710938 10.015625 -0.671875 L 10.015625 0 C 8.972656 -0.0625 7.546875 -0.09375 5.734375 -0.09375 C 3.796875 -0.09375 2.359375 -0.0625 1.421875 0 L 1.421875 -0.671875 C 2.222656 -0.710938 2.804688 -0.800781 3.171875 -0.9375 C 3.546875 -1.070312 3.800781 -1.332031 3.9375 -1.71875 C 4.070312 -2.101562 4.140625 -2.722656 4.140625 -3.578125 L 4.140625 -20.296875 C 4.140625 -21.140625 4.070312 -21.753906 3.9375 -22.140625 C 3.800781 -22.523438 3.546875 -22.785156 3.171875 -22.921875 C 2.804688 -23.054688 2.222656 -23.144531 1.421875 -23.1875 L 1.421875 -23.859375 C 2.359375 -23.796875 3.726562 -23.765625 5.53125 -23.765625 L 9.171875 -23.796875 C 9.597656 -23.816406 10.078125 -23.828125 10.609375 -23.828125 C 13.222656 -23.828125 15.226562 -23.28125 16.625 -22.1875 C 18.03125 -21.101562 18.734375 -19.695312 18.734375 -17.96875 C 18.734375 -17.09375 18.523438 -16.207031 18.109375 -15.3125 C 17.691406 -14.425781 16.992188 -13.628906 16.015625 -12.921875 C 15.046875 -12.210938 13.773438 -11.738281 12.203125 -11.5 L 12.609375 -11.421875 C 14.085938 -11.171875 15.160156 -10.71875 15.828125 -10.0625 C 16.503906 -9.414062 17.003906 -8.382812 17.328125 -6.96875 L 18.171875 -3.53125 C 18.390625 -2.5 18.625 -1.78125 18.875 -1.375 C 19.125 -0.976562 19.460938 -0.78125 19.890625 -0.78125 C 20.265625 -0.78125 20.582031 -0.878906 20.84375 -1.078125 C 21.101562 -1.273438 21.398438 -1.601562 21.734375 -2.0625 Z M 9.78125 -23.1875 C 9.082031 -23.1875 8.554688 -23.109375 8.203125 -22.953125 C 7.859375 -22.796875 7.617188 -22.515625 7.484375 -22.109375 C 7.347656 -21.703125 7.28125 -21.097656 7.28125 -20.296875 L 7.28125 -12 L 9.53125 -12 C 11.757812 -12 13.289062 -12.492188 14.125 -13.484375 C 14.957031 -14.472656 15.375 -15.84375 15.375 -17.59375 C 15.375 -19.4375 14.929688 -20.828125 14.046875 -21.765625 C 13.171875 -22.710938 11.75 -23.1875 9.78125 -23.1875 Z M 9.78125 -23.1875 "/></g></g></g></g></g><g transform="matrix(1, 0, 0, 1, 143, 196)"><g clip-path="url(#61abc8e9ed)"><g fill="#3f79b8" fill-opacity="1"><g transform="translate(0.519614, 35.386143)"><g><path d="M 21.640625 -23.859375 C 21.484375 -21.722656 21.40625 -19.8125 21.40625 -18.125 C 21.40625 -17.070312 21.4375 -16.222656 21.5 -15.578125 L 20.734375 -15.578125 C 20.191406 -18.335938 19.453125 -20.28125 18.515625 -21.40625 C 17.585938 -22.53125 16.3125 -23.09375 14.6875 -23.09375 L 13.921875 -23.09375 L 13.921875 -3.84375 C 13.921875 -2.894531 14.015625 -2.207031 14.203125 -1.78125 C 14.398438 -1.351562 14.738281 -1.066406 15.21875 -0.921875 C 15.695312 -0.773438 16.46875 -0.691406 17.53125 -0.671875 L 17.53125 0 C 14.695312 -0.0625 12.5625 -0.09375 11.125 -0.09375 C 9.707031 -0.09375 7.648438 -0.0625 4.953125 0 L 4.953125 -0.671875 C 6.003906 -0.691406 6.769531 -0.773438 7.25 -0.921875 C 7.738281 -1.066406 8.078125 -1.351562 8.265625 -1.78125 C 8.460938 -2.207031 8.5625 -2.894531 8.5625 -3.84375 L 8.5625 -23.09375 L 7.8125 -23.09375 C 6.738281 -23.09375 5.820312 -22.851562 5.0625 -22.375 C 4.3125 -21.90625 3.664062 -21.125 3.125 -20.03125 C 2.59375 -18.945312 2.132812 -17.460938 1.75 -15.578125 L 0.984375 -15.578125 C 1.046875 -16.222656 1.078125 -17.070312 1.078125 -18.125 C 1.078125 -19.8125 1 -21.722656 0.84375 -23.859375 C 2.882812 -23.796875 6.351562 -23.765625 11.25 -23.765625 C 16.15625 -23.765625 19.617188 -23.796875 21.640625 -23.859375 Z M 21.640625 -23.859375 "/></g></g></g><g fill="#3f79b8" fill-opacity="1"><g transform="translate(23.030044, 35.386143)"><g><path d="M 11.5625 -23.1875 C 10.800781 -23.144531 10.25 -23.054688 9.90625 -22.921875 C 9.570312 -22.785156 9.34375 -22.523438 9.21875 -22.140625 C 9.09375 -21.753906 9.03125 -21.140625 9.03125 -20.296875 L 9.03125 -3.578125 C 9.03125 -2.722656 9.09375 -2.101562 9.21875 -1.71875 C 9.34375 -1.332031 9.570312 -1.070312 9.90625 -0.9375 C 10.25 -0.800781 10.800781 -0.710938 11.5625 -0.671875 L 11.5625 0 C 10.34375 -0.0625 8.644531 -0.09375 6.46875 -0.09375 C 4.0625 -0.09375 2.285156 -0.0625 1.140625 0 L 1.140625 -0.671875 C 1.890625 -0.710938 2.4375 -0.800781 2.78125 -0.9375 C 3.125 -1.070312 3.359375 -1.332031 3.484375 -1.71875 C 3.609375 -2.101562 3.671875 -2.722656 3.671875 -3.578125 L 3.671875 -20.296875 C 3.671875 -21.140625 3.609375 -21.753906 3.484375 -22.140625 C 3.359375 -22.523438 3.125 -22.785156 2.78125 -22.921875 C 2.4375 -23.054688 1.890625 -23.144531 1.140625 -23.1875 L 1.140625 -23.859375 C 2.285156 -23.796875 4.0625 -23.765625 6.46875 -23.765625 C 8.644531 -23.765625 10.34375 -23.796875 11.5625 -23.859375 Z M 11.5625 -23.1875 "/></g></g></g><g fill="#3f79b8" fill-opacity="1"><g transform="translate(35.700579, 35.386143)"><g><path d="M 30.125 -23.1875 C 29.363281 -23.144531 28.8125 -23.054688 28.46875 -22.921875 C 28.132812 -22.785156 27.90625 -22.523438 27.78125 -22.140625 C 27.664062 -21.753906 27.609375 -21.140625 27.609375 -20.296875 L 27.609375 -3.578125 C 27.609375 -2.722656 27.664062 -2.101562 27.78125 -1.71875 C 27.90625 -1.332031 28.140625 -1.070312 28.484375 -0.9375 C 28.835938 -0.800781 29.382812 -0.710938 30.125 -0.671875 L 30.125 0 C 28.894531 -0.0625 27.132812 -0.09375 24.84375 -0.09375 C 22.4375 -0.09375 20.660156 -0.0625 19.515625 0 L 19.515625 -0.671875 C 20.328125 -0.710938 20.914062 -0.800781 21.28125 -0.9375 C 21.65625 -1.070312 21.910156 -1.332031 22.046875 -1.71875 C 22.179688 -2.101562 22.25 -2.722656 22.25 -3.578125 L 22.25 -21.203125 L 14.125 0.03125 L 13.578125 0.03125 L 4.484375 -21.671875 L 4.484375 -5.53125 C 4.484375 -4.195312 4.550781 -3.222656 4.6875 -2.609375 C 4.820312 -1.992188 5.113281 -1.546875 5.5625 -1.265625 C 6.007812 -0.984375 6.738281 -0.785156 7.75 -0.671875 L 7.75 0 C 6.875 -0.0625 5.660156 -0.09375 4.109375 -0.09375 C 2.878906 -0.09375 1.898438 -0.0625 1.171875 0 L 1.171875 -0.671875 C 1.921875 -0.785156 2.46875 -0.976562 2.8125 -1.25 C 3.164062 -1.519531 3.398438 -1.945312 3.515625 -2.53125 C 3.640625 -3.113281 3.703125 -3.976562 3.703125 -5.125 L 3.703125 -20.296875 C 3.703125 -21.140625 3.640625 -21.753906 3.515625 -22.140625 C 3.398438 -22.523438 3.164062 -22.785156 2.8125 -22.921875 C 2.46875 -23.054688 1.921875 -23.144531 1.171875 -23.1875 L 1.171875 -23.859375 C 1.898438 -23.796875 2.878906 -23.765625 4.109375 -23.765625 C 6.179688 -23.765625 7.957031 -23.796875 9.4375 -23.859375 L 16.25 -7.453125 L 22.453125 -23.765625 L 24.84375 -23.765625 C 27.132812 -23.765625 28.894531 -23.796875 30.125 -23.859375 Z M 30.125 -23.1875 "/></g></g></g><g fill="#3f79b8" fill-opacity="1"><g transform="translate(66.938854, 35.386143)"><g><path d="M 19.609375 -5.125 C 19.609375 -3.050781 19.6875 -1.34375 19.84375 0 C 18.320312 -0.0625 15.753906 -0.09375 12.140625 -0.09375 C 7.234375 -0.09375 3.566406 -0.0625 1.140625 0 L 1.140625 -0.671875 C 1.890625 -0.710938 2.4375 -0.800781 2.78125 -0.9375 C 3.125 -1.070312 3.359375 -1.332031 3.484375 -1.71875 C 3.609375 -2.101562 3.671875 -2.722656 3.671875 -3.578125 L 3.671875 -20.296875 C 3.671875 -21.140625 3.609375 -21.753906 3.484375 -22.140625 C 3.359375 -22.523438 3.125 -22.785156 2.78125 -22.921875 C 2.4375 -23.054688 1.890625 -23.144531 1.140625 -23.1875 L 1.140625 -23.859375 C 3.566406 -23.796875 7.234375 -23.765625 12.140625 -23.765625 C 15.441406 -23.765625 17.785156 -23.796875 19.171875 -23.859375 C 19.015625 -21.992188 18.9375 -20.332031 18.9375 -18.875 C 18.9375 -17.882812 18.972656 -17.117188 19.046875 -16.578125 L 18.265625 -16.578125 C 17.929688 -18.984375 17.320312 -20.671875 16.4375 -21.640625 C 15.5625 -22.609375 14.328125 -23.09375 12.734375 -23.09375 L 11.359375 -23.09375 C 10.660156 -23.09375 10.15625 -23.035156 9.84375 -22.921875 C 9.53125 -22.804688 9.316406 -22.582031 9.203125 -22.25 C 9.085938 -21.925781 9.03125 -21.40625 9.03125 -20.6875 L 9.03125 -12.328125 L 10.109375 -12.328125 C 11.296875 -12.328125 12.195312 -12.765625 12.8125 -13.640625 C 13.4375 -14.523438 13.875 -15.570312 14.125 -16.78125 L 14.890625 -16.78125 C 14.828125 -15.84375 14.796875 -14.785156 14.796875 -13.609375 L 14.796875 -12 C 14.796875 -10.851562 14.863281 -9.257812 15 -7.21875 L 14.21875 -7.21875 C 13.75 -10.175781 12.378906 -11.65625 10.109375 -11.65625 L 9.03125 -11.65625 L 9.03125 -3.171875 C 9.03125 -2.453125 9.085938 -1.925781 9.203125 -1.59375 C 9.316406 -1.269531 9.53125 -1.050781 9.84375 -0.9375 C 10.15625 -0.832031 10.660156 -0.78125 11.359375 -0.78125 L 13.015625 -0.78125 C 14.609375 -0.78125 15.890625 -1.320312 16.859375 -2.40625 C 17.835938 -3.5 18.53125 -5.347656 18.9375 -7.953125 L 19.71875 -7.953125 C 19.644531 -7.210938 19.609375 -6.269531 19.609375 -5.125 Z M 19.609375 -5.125 "/></g></g></g></g></g><g transform="matrix(1, 0, 0, 1, 143, 238)"><g clip-path="url(#7e0c533abe)"><g clip-path="url(#6047d72d6b)"><g fill="#000000" fill-opacity="1"><g transform="translate(0.519614, 8.435212)"><g><path d="M 1.484375 0 L 1.484375 -0.25 L 2.484375 -0.375 L 2.484375 -5.90625 L 2.25 -5.90625 C 1.4375 -5.90625 0.890625 -5.867188 0.609375 -5.796875 L 0.484375 -4.828125 L 0.171875 -4.828125 L 0.171875 -6.296875 L 5.71875 -6.296875 L 5.71875 -4.828125 L 5.40625 -4.828125 L 5.28125 -5.796875 C 5.15625 -5.828125 4.992188 -5.847656 4.796875 -5.859375 C 4.609375 -5.867188 4.410156 -5.875 4.203125 -5.875 C 3.992188 -5.882812 3.800781 -5.890625 3.625 -5.890625 L 3.390625 -5.890625 L 3.390625 -0.375 L 4.390625 -0.25 L 4.390625 0 Z M 1.484375 0 "/></g></g></g></g><g fill="#000000" fill-opacity="1"><g transform="translate(6.393598, 8.435212)"><g><path d="M 0.28125 0 L 0.28125 -0.25 L 1.09375 -0.375 L 1.09375 -5.921875 L 0.28125 -6.046875 L 0.28125 -6.296875 L 2.796875 -6.296875 L 2.796875 -6.046875 L 2 -5.921875 L 2 -3.453125 L 4.953125 -3.453125 L 4.953125 -5.921875 L 4.140625 -6.046875 L 4.140625 -6.296875 L 6.671875 -6.296875 L 6.671875 -6.046875 L 5.859375 -5.921875 L 5.859375 -0.375 L 6.671875 -0.25 L 6.671875 0 L 4.140625 0 L 4.140625 -0.25 L 4.953125 -0.375 L 4.953125 -3.03125 L 2 -3.03125 L 2 -0.375 L 2.796875 -0.25 L 2.796875 0 Z M 0.28125 0 "/></g></g></g><g fill="#000000" fill-opacity="1"><g transform="translate(13.346083, 8.435212)"><g><path d="M 0.28125 -0.25 L 1.09375 -0.375 L 1.09375 -5.921875 L 0.28125 -6.046875 L 0.28125 -6.296875 L 5.015625 -6.296875 L 5.015625 -4.796875 L 4.703125 -4.796875 L 4.546875 -5.8125 C 4.367188 -5.84375 4.148438 -5.859375 3.890625 -5.859375 C 3.640625 -5.867188 3.347656 -5.875 3.015625 -5.875 L 2 -5.875 L 2 -3.421875 L 3.703125 -3.421875 L 3.84375 -4.171875 L 4.140625 -4.171875 L 4.140625 -2.234375 L 3.84375 -2.234375 L 3.703125 -3 L 2 -3 L 2 -0.421875 L 3.234375 -0.421875 C 3.640625 -0.421875 3.972656 -0.425781 4.234375 -0.4375 C 4.503906 -0.457031 4.703125 -0.476562 4.828125 -0.5 L 5.09375 -1.671875 L 5.40625 -1.671875 L 5.3125 0 L 0.28125 0 Z M 0.28125 -0.25 "/></g></g></g><g fill="#000000" fill-opacity="1"><g transform="translate(19.220067, 8.435212)"><g/></g></g><g fill="#000000" fill-opacity="1"><g transform="translate(21.627432, 8.435212)"><g><path d="M 3.46875 -6 L 3.46875 -5.984375 C 2.925781 -5.984375 2.5 -5.867188 2.1875 -5.640625 C 1.882812 -5.421875 1.671875 -5.097656 1.546875 -4.671875 C 1.429688 -4.253906 1.375 -3.742188 1.375 -3.140625 C 1.375 -2.140625 1.546875 -1.410156 1.890625 -0.953125 C 2.222656 -0.503906 2.75 -0.28125 3.46875 -0.28125 C 4.019531 -0.28125 4.445312 -0.394531 4.75 -0.625 C 5.050781 -0.851562 5.265625 -1.179688 5.390625 -1.609375 C 5.515625 -2.046875 5.578125 -2.5625 5.578125 -3.15625 C 5.578125 -4.15625 5.40625 -4.878906 5.0625 -5.328125 C 4.726562 -5.773438 4.195312 -6 3.46875 -6 Z M 3.46875 0.109375 C 2.445312 0.109375 1.675781 -0.171875 1.15625 -0.734375 C 0.644531 -1.296875 0.390625 -2.097656 0.390625 -3.140625 C 0.390625 -5.285156 1.414062 -6.359375 3.46875 -6.359375 C 4.507812 -6.359375 5.28125 -6.082031 5.78125 -5.53125 C 6.289062 -4.976562 6.546875 -4.179688 6.546875 -3.140625 C 6.546875 -2.097656 6.289062 -1.296875 5.78125 -0.734375 C 5.269531 -0.171875 4.5 0.109375 3.46875 0.109375 Z M 3.46875 0.109375 "/></g></g></g><g fill="#000000" fill-opacity="1"><g transform="translate(28.579917, 8.435212)"><g><path d="M 5.421875 -5.921875 L 4.578125 -6.046875 L 4.578125 -6.296875 L 6.734375 -6.296875 L 6.734375 -6.046875 L 5.921875 -5.921875 L 5.921875 0 L 5.46875 0 L 1.578125 -5.671875 L 1.578125 -0.375 L 2.421875 -0.25 L 2.421875 0 L 0.28125 0 L 0.28125 -0.25 L 1.09375 -0.375 L 1.09375 -5.921875 L 0.28125 -6.046875 L 0.28125 -6.296875 L 2.1875 -6.296875 L 5.421875 -1.640625 Z M 5.421875 -5.921875 "/></g></g></g><g fill="#000000" fill-opacity="1"><g transform="translate(35.532403, 8.435212)"><g><path d="M 2.96875 -6.046875 L 2 -5.921875 L 2 -0.40625 L 3.234375 -0.40625 C 3.566406 -0.40625 3.851562 -0.410156 4.09375 -0.421875 C 4.34375 -0.441406 4.546875 -0.46875 4.703125 -0.5 L 5 -1.8125 L 5.296875 -1.8125 L 5.21875 0 L 0.28125 0 L 0.28125 -0.25 L 1.09375 -0.375 L 1.09375 -5.921875 L 0.28125 -6.046875 L 0.28125 -6.296875 L 2.96875 -6.296875 Z M 2.96875 -6.046875 "/></g></g></g><g fill="#000000" fill-opacity="1"><g transform="translate(41.406386, 8.435212)"><g><path d="M 3.9375 -2.484375 L 3.9375 -0.375 L 4.9375 -0.25 L 4.9375 0 L 2.03125 0 L 2.03125 -0.25 L 3.03125 -0.375 L 3.03125 -2.453125 L 0.8125 -5.921875 L 0.109375 -6.046875 L 0.109375 -6.296875 L 2.765625 -6.296875 L 2.765625 -6.046875 L 1.921875 -5.921875 L 3.734375 -3.015625 L 5.453125 -5.921875 L 4.65625 -6.046875 L 4.65625 -6.296875 L 6.703125 -6.296875 L 6.703125 -6.046875 L 6.015625 -5.921875 Z M 3.9375 -2.484375 "/></g></g></g><g fill="#000000" fill-opacity="1"><g transform="translate(48.358872, 8.435212)"><g/></g></g><g fill="#000000" fill-opacity="1"><g transform="translate(50.766237, 8.435212)"><g><path d="M 2.484375 -2.890625 C 3.023438 -2.890625 3.414062 -3.007812 3.65625 -3.25 C 3.90625 -3.5 4.03125 -3.894531 4.03125 -4.4375 C 4.03125 -4.976562 3.90625 -5.351562 3.65625 -5.5625 C 3.40625 -5.769531 3.003906 -5.875 2.453125 -5.875 L 2 -5.875 L 2 -2.890625 Z M 4.96875 -4.453125 C 4.96875 -3.765625 4.765625 -3.257812 4.359375 -2.9375 C 3.953125 -2.625 3.398438 -2.46875 2.703125 -2.46875 L 2 -2.46875 L 2 -0.375 L 3 -0.25 L 3 0 L 0.34375 0 L 0.34375 -0.25 L 1.09375 -0.375 L 1.09375 -5.921875 L 0.28125 -6.046875 L 0.28125 -6.296875 L 2.65625 -6.296875 C 4.195312 -6.296875 4.96875 -5.679688 4.96875 -4.453125 Z M 4.96875 -4.453125 "/></g></g></g><g fill="#000000" fill-opacity="1"><g transform="translate(56.120224, 8.435212)"><g><path d="M 3.46875 -6 L 3.46875 -5.984375 C 2.925781 -5.984375 2.5 -5.867188 2.1875 -5.640625 C 1.882812 -5.421875 1.671875 -5.097656 1.546875 -4.671875 C 1.429688 -4.253906 1.375 -3.742188 1.375 -3.140625 C 1.375 -2.140625 1.546875 -1.410156 1.890625 -0.953125 C 2.222656 -0.503906 2.75 -0.28125 3.46875 -0.28125 C 4.019531 -0.28125 4.445312 -0.394531 4.75 -0.625 C 5.050781 -0.851562 5.265625 -1.179688 5.390625 -1.609375 C 5.515625 -2.046875 5.578125 -2.5625 5.578125 -3.15625 C 5.578125 -4.15625 5.40625 -4.878906 5.0625 -5.328125 C 4.726562 -5.773438 4.195312 -6 3.46875 -6 Z M 3.46875 0.109375 C 2.445312 0.109375 1.675781 -0.171875 1.15625 -0.734375 C 0.644531 -1.296875 0.390625 -2.097656 0.390625 -3.140625 C 0.390625 -5.285156 1.414062 -6.359375 3.46875 -6.359375 C 4.507812 -6.359375 5.28125 -6.082031 5.78125 -5.53125 C 6.289062 -4.976562 6.546875 -4.179688 6.546875 -3.140625 C 6.546875 -2.097656 6.289062 -1.296875 5.78125 -0.734375 C 5.269531 -0.171875 4.5 0.109375 3.46875 0.109375 Z M 3.46875 0.109375 "/></g></g></g><g fill="#000000" fill-opacity="1"><g transform="translate(63.072709, 8.435212)"><g><path d="M 3.328125 -0.40625 L 3.34375 -0.40625 C 3.894531 -0.40625 4.332031 -0.515625 4.65625 -0.734375 C 4.988281 -0.953125 5.226562 -1.269531 5.375 -1.6875 C 5.519531 -2.101562 5.59375 -2.609375 5.59375 -3.203125 C 5.59375 -4.078125 5.351562 -4.738281 4.875 -5.1875 C 4.40625 -5.644531 3.726562 -5.875 2.84375 -5.875 L 2 -5.875 L 2 -0.4375 C 2.1875 -0.425781 2.390625 -0.414062 2.609375 -0.40625 C 2.828125 -0.40625 3.066406 -0.40625 3.328125 -0.40625 Z M 6.578125 -3.1875 C 6.578125 -1.050781 5.5 0.015625 3.34375 0.015625 L 1.09375 0 L 0.28125 0 L 0.28125 -0.25 L 1.09375 -0.375 L 1.09375 -5.921875 L 0.28125 -6.046875 L 0.28125 -6.296875 L 3.140625 -6.296875 C 4.253906 -6.296875 5.101562 -6.046875 5.6875 -5.546875 C 6.28125 -5.054688 6.578125 -4.269531 6.578125 -3.1875 Z M 6.578125 -3.1875 "/></g></g></g><g fill="#000000" fill-opacity="1"><g transform="translate(70.025195, 8.435212)"><g><path d="M 1.375 -3.09375 C 1.375 -2.53125 1.453125 -2.035156 1.609375 -1.609375 C 1.765625 -1.191406 2.007812 -0.863281 2.34375 -0.625 C 2.675781 -0.382812 3.109375 -0.265625 3.640625 -0.265625 C 3.984375 -0.265625 4.316406 -0.304688 4.640625 -0.390625 C 4.960938 -0.484375 5.21875 -0.597656 5.40625 -0.734375 L 5.578125 -1.6875 L 5.890625 -1.6875 L 5.859375 -0.203125 C 5.179688 -0.00390625 4.441406 0.09375 3.640625 0.09375 C 2.960938 0.09375 2.378906 -0.03125 1.890625 -0.28125 C 1.410156 -0.53125 1.039062 -0.890625 0.78125 -1.359375 C 0.519531 -1.835938 0.390625 -2.410156 0.390625 -3.078125 C 0.390625 -4.160156 0.664062 -4.976562 1.21875 -5.53125 C 1.769531 -6.09375 2.582031 -6.375 3.65625 -6.375 C 3.976562 -6.375 4.316406 -6.351562 4.671875 -6.3125 C 5.023438 -6.269531 5.390625 -6.207031 5.765625 -6.125 L 5.796875 -4.75 L 5.484375 -4.75 L 5.34375 -5.578125 C 5.144531 -5.703125 4.898438 -5.800781 4.609375 -5.875 C 4.316406 -5.957031 4.015625 -6 3.703125 -6 C 3.117188 -6 2.65625 -5.878906 2.3125 -5.640625 C 1.976562 -5.410156 1.738281 -5.078125 1.59375 -4.640625 C 1.445312 -4.210938 1.375 -3.695312 1.375 -3.09375 Z M 1.375 -3.09375 "/></g></g></g><g fill="#000000" fill-opacity="1"><g transform="translate(76.438423, 8.435212)"><g><path d="M 2.171875 -0.25 L 2.171875 0 L 0.09375 0 L 0.09375 -0.25 L 0.8125 -0.375 L 2.953125 -6.359375 L 3.84375 -6.359375 L 6.078125 -0.375 L 6.875 -0.25 L 6.875 0 L 4.21875 0 L 4.21875 -0.25 L 5.0625 -0.375 L 4.4375 -2.1875 L 1.953125 -2.1875 L 1.3125 -0.375 Z M 3.171875 -5.671875 L 2.09375 -2.625 L 4.296875 -2.625 Z M 3.171875 -5.671875 "/></g></g></g><g fill="#000000" fill-opacity="1"><g transform="translate(83.390908, 8.435212)"><g><path d="M 2.59375 0.09375 C 2.238281 0.09375 1.890625 0.0625 1.546875 0 C 1.203125 -0.0703125 0.90625 -0.15625 0.65625 -0.25 L 0.65625 -1.703125 L 0.96875 -1.703125 L 1.125 -0.859375 C 1.195312 -0.765625 1.3125 -0.675781 1.46875 -0.59375 C 1.632812 -0.507812 1.8125 -0.4375 2 -0.375 C 2.195312 -0.320312 2.382812 -0.296875 2.5625 -0.296875 C 2.976562 -0.296875 3.3125 -0.398438 3.5625 -0.609375 C 3.820312 -0.828125 3.953125 -1.144531 3.953125 -1.5625 C 3.953125 -1.800781 3.898438 -2 3.796875 -2.15625 C 3.691406 -2.3125 3.554688 -2.4375 3.390625 -2.53125 C 3.222656 -2.632812 3.039062 -2.71875 2.84375 -2.78125 C 2.65625 -2.84375 2.472656 -2.90625 2.296875 -2.96875 C 2.015625 -3.070312 1.742188 -3.1875 1.484375 -3.3125 C 1.234375 -3.445312 1.03125 -3.628906 0.875 -3.859375 C 0.71875 -4.085938 0.640625 -4.394531 0.640625 -4.78125 C 0.640625 -5.144531 0.734375 -5.445312 0.921875 -5.6875 C 1.117188 -5.925781 1.378906 -6.097656 1.703125 -6.203125 C 2.023438 -6.316406 2.378906 -6.375 2.765625 -6.375 C 3.273438 -6.375 3.828125 -6.304688 4.421875 -6.171875 L 4.421875 -4.875 L 4.125 -4.875 L 3.953125 -5.640625 C 3.640625 -5.867188 3.242188 -5.984375 2.765625 -5.984375 C 2.398438 -5.984375 2.085938 -5.90625 1.828125 -5.75 C 1.566406 -5.601562 1.4375 -5.363281 1.4375 -5.03125 C 1.4375 -4.8125 1.484375 -4.632812 1.578125 -4.5 C 1.679688 -4.363281 1.804688 -4.253906 1.953125 -4.171875 C 2.109375 -4.066406 2.285156 -3.976562 2.484375 -3.90625 C 2.691406 -3.84375 2.894531 -3.773438 3.09375 -3.703125 C 3.375 -3.597656 3.640625 -3.472656 3.890625 -3.328125 C 4.148438 -3.191406 4.359375 -3.003906 4.515625 -2.765625 C 4.671875 -2.523438 4.75 -2.207031 4.75 -1.8125 C 4.75 -1.175781 4.550781 -0.695312 4.15625 -0.375 C 3.769531 -0.0625 3.25 0.09375 2.59375 0.09375 Z M 2.59375 0.09375 "/></g></g></g><g fill="#000000" fill-opacity="1"><g transform="translate(88.744895, 8.435212)"><g><path d="M 1.484375 0 L 1.484375 -0.25 L 2.484375 -0.375 L 2.484375 -5.90625 L 2.25 -5.90625 C 1.4375 -5.90625 0.890625 -5.867188 0.609375 -5.796875 L 0.484375 -4.828125 L 0.171875 -4.828125 L 0.171875 -6.296875 L 5.71875 -6.296875 L 5.71875 -4.828125 L 5.40625 -4.828125 L 5.28125 -5.796875 C 5.15625 -5.828125 4.992188 -5.847656 4.796875 -5.859375 C 4.609375 -5.867188 4.410156 -5.875 4.203125 -5.875 C 3.992188 -5.882812 3.800781 -5.890625 3.625 -5.890625 L 3.390625 -5.890625 L 3.390625 -0.375 L 4.390625 -0.25 L 4.390625 0 Z M 1.484375 0 "/></g></g></g><g fill="#000000" fill-opacity="1"><g transform="translate(94.618879, 8.435212)"><g/></g></g><g fill="#000000" fill-opacity="1"><g transform="translate(97.026244, 8.435212)"><g><path d="M 2.484375 -2.890625 C 3.023438 -2.890625 3.414062 -3.007812 3.65625 -3.25 C 3.90625 -3.5 4.03125 -3.894531 4.03125 -4.4375 C 4.03125 -4.976562 3.90625 -5.351562 3.65625 -5.5625 C 3.40625 -5.769531 3.003906 -5.875 2.453125 -5.875 L 2 -5.875 L 2 -2.890625 Z M 4.96875 -4.453125 C 4.96875 -3.765625 4.765625 -3.257812 4.359375 -2.9375 C 3.953125 -2.625 3.398438 -2.46875 2.703125 -2.46875 L 2 -2.46875 L 2 -0.375 L 3 -0.25 L 3 0 L 0.34375 0 L 0.34375 -0.25 L 1.09375 -0.375 L 1.09375 -5.921875 L 0.28125 -6.046875 L 0.28125 -6.296875 L 2.65625 -6.296875 C 4.195312 -6.296875 4.96875 -5.679688 4.96875 -4.453125 Z M 4.96875 -4.453125 "/></g></g></g><g fill="#000000" fill-opacity="1"><g transform="translate(102.380231, 8.435212)"><g><path d="M 2.96875 -6.046875 L 2 -5.921875 L 2 -0.40625 L 3.234375 -0.40625 C 3.566406 -0.40625 3.851562 -0.410156 4.09375 -0.421875 C 4.34375 -0.441406 4.546875 -0.46875 4.703125 -0.5 L 5 -1.8125 L 5.296875 -1.8125 L 5.21875 0 L 0.28125 0 L 0.28125 -0.25 L 1.09375 -0.375 L 1.09375 -5.921875 L 0.28125 -6.046875 L 0.28125 -6.296875 L 2.96875 -6.296875 Z M 2.96875 -6.046875 "/></g></g></g><g fill="#000000" fill-opacity="1"><g transform="translate(108.254215, 8.435212)"><g><path d="M 2.171875 -0.25 L 2.171875 0 L 0.09375 0 L 0.09375 -0.25 L 0.8125 -0.375 L 2.953125 -6.359375 L 3.84375 -6.359375 L 6.078125 -0.375 L 6.875 -0.25 L 6.875 0 L 4.21875 0 L 4.21875 -0.25 L 5.0625 -0.375 L 4.4375 -2.1875 L 1.953125 -2.1875 L 1.3125 -0.375 Z M 3.171875 -5.671875 L 2.09375 -2.625 L 4.296875 -2.625 Z M 3.171875 -5.671875 "/></g></g></g><g fill="#000000" fill-opacity="1"><g transform="translate(115.2067, 8.435212)"><g><path d="M 1.484375 0 L 1.484375 -0.25 L 2.484375 -0.375 L 2.484375 -5.90625 L 2.25 -5.90625 C 1.4375 -5.90625 0.890625 -5.867188 0.609375 -5.796875 L 0.484375 -4.828125 L 0.171875 -4.828125 L 0.171875 -6.296875 L 5.71875 -6.296875 L 5.71875 -4.828125 L 5.40625 -4.828125 L 5.28125 -5.796875 C 5.15625 -5.828125 4.992188 -5.847656 4.796875 -5.859375 C 4.609375 -5.867188 4.410156 -5.875 4.203125 -5.875 C 3.992188 -5.882812 3.800781 -5.890625 3.625 -5.890625 L 3.390625 -5.890625 L 3.390625 -0.375 L 4.390625 -0.25 L 4.390625 0 Z M 1.484375 0 "/></g></g></g><g fill="#000000" fill-opacity="1"><g transform="translate(121.080684, 8.435212)"><g><path d="M 2 -2.828125 L 2 -0.375 L 3.046875 -0.25 L 3.046875 0 L 0.34375 0 L 0.34375 -0.25 L 1.09375 -0.375 L 1.09375 -5.921875 L 0.28125 -6.046875 L 0.28125 -6.296875 L 5.015625 -6.296875 L 5.015625 -4.796875 L 4.703125 -4.796875 L 4.546875 -5.8125 C 4.367188 -5.84375 4.148438 -5.859375 3.890625 -5.859375 C 3.640625 -5.867188 3.347656 -5.875 3.015625 -5.875 L 2 -5.875 L 2 -3.25 L 3.84375 -3.25 L 4 -4 L 4.28125 -4 L 4.28125 -2.0625 L 4 -2.0625 L 3.84375 -2.828125 Z M 2 -2.828125 "/></g></g></g><g fill="#000000" fill-opacity="1"><g transform="translate(126.434671, 8.435212)"><g><path d="M 3.46875 -6 L 3.46875 -5.984375 C 2.925781 -5.984375 2.5 -5.867188 2.1875 -5.640625 C 1.882812 -5.421875 1.671875 -5.097656 1.546875 -4.671875 C 1.429688 -4.253906 1.375 -3.742188 1.375 -3.140625 C 1.375 -2.140625 1.546875 -1.410156 1.890625 -0.953125 C 2.222656 -0.503906 2.75 -0.28125 3.46875 -0.28125 C 4.019531 -0.28125 4.445312 -0.394531 4.75 -0.625 C 5.050781 -0.851562 5.265625 -1.179688 5.390625 -1.609375 C 5.515625 -2.046875 5.578125 -2.5625 5.578125 -3.15625 C 5.578125 -4.15625 5.40625 -4.878906 5.0625 -5.328125 C 4.726562 -5.773438 4.195312 -6 3.46875 -6 Z M 3.46875 0.109375 C 2.445312 0.109375 1.675781 -0.171875 1.15625 -0.734375 C 0.644531 -1.296875 0.390625 -2.097656 0.390625 -3.140625 C 0.390625 -5.285156 1.414062 -6.359375 3.46875 -6.359375 C 4.507812 -6.359375 5.28125 -6.082031 5.78125 -5.53125 C 6.289062 -4.976562 6.546875 -4.179688 6.546875 -3.140625 C 6.546875 -2.097656 6.289062 -1.296875 5.78125 -0.734375 C 5.269531 -0.171875 4.5 0.109375 3.46875 0.109375 Z M 3.46875 0.109375 "/></g></g></g><g fill="#000000" fill-opacity="1"><g transform="translate(133.387156, 8.435212)"><g><path d="M 5.3125 -4.625 C 5.3125 -4.175781 5.1875 -3.800781 4.9375 -3.5 C 4.6875 -3.207031 4.378906 -3.003906 4.015625 -2.890625 L 5.734375 -0.375 L 6.40625 -0.25 L 6.40625 0 L 4.90625 0 L 3.125 -2.765625 L 2 -2.765625 L 2 -0.375 L 2.9375 -0.25 L 2.9375 0 L 0.34375 0 L 0.34375 -0.25 L 1.09375 -0.375 L 1.09375 -5.921875 L 0.28125 -6.046875 L 0.28125 -6.296875 L 3 -6.296875 C 3.46875 -6.296875 3.875 -6.242188 4.21875 -6.140625 C 4.570312 -6.046875 4.84375 -5.878906 5.03125 -5.640625 C 5.21875 -5.398438 5.3125 -5.0625 5.3125 -4.625 Z M 2.8125 -3.1875 C 3.351562 -3.1875 3.75 -3.28125 4 -3.46875 C 4.25 -3.664062 4.375 -4.023438 4.375 -4.546875 C 4.375 -5.066406 4.25 -5.414062 4 -5.59375 C 3.75 -5.78125 3.347656 -5.875 2.796875 -5.875 L 2 -5.875 L 2 -3.1875 Z M 2.8125 -3.1875 "/></g></g></g><g fill="#000000" fill-opacity="1"><g transform="translate(139.800385, 8.435212)"><g><path d="M 4.046875 0 L 3.890625 0 L 1.578125 -5.421875 L 1.578125 -0.375 L 2.421875 -0.25 L 2.421875 0 L 0.28125 0 L 0.28125 -0.25 L 1.09375 -0.375 L 1.09375 -5.921875 L 0.28125 -6.046875 L 0.28125 -6.296875 L 2.1875 -6.296875 L 4.234375 -1.515625 L 6.46875 -6.296875 L 8.28125 -6.296875 L 8.28125 -6.046875 L 7.46875 -5.921875 L 7.46875 -0.375 L 8.28125 -0.25 L 8.28125 0 L 5.71875 0 L 5.71875 -0.25 L 6.5625 -0.375 L 6.5625 -5.421875 Z M 4.046875 0 "/></g></g></g><g clip-path="url(#54bddb0587)"><g fill="#000000" fill-opacity="1"><g transform="translate(0.519614, 19.669525)"><g><path d="M 3.9375 -2.484375 L 3.9375 -0.375 L 4.9375 -0.25 L 4.9375 0 L 2.03125 0 L 2.03125 -0.25 L 3.03125 -0.375 L 3.03125 -2.453125 L 0.8125 -5.921875 L 0.109375 -6.046875 L 0.109375 -6.296875 L 2.765625 -6.296875 L 2.765625 -6.046875 L 1.921875 -5.921875 L 3.734375 -3.015625 L 5.453125 -5.921875 L 4.65625 -6.046875 L 4.65625 -6.296875 L 6.703125 -6.296875 L 6.703125 -6.046875 L 6.015625 -5.921875 Z M 3.9375 -2.484375 "/></g></g></g></g><g fill="#000000" fill-opacity="1"><g transform="translate(7.4721, 19.669525)"><g><path d="M 3.46875 -6 L 3.46875 -5.984375 C 2.925781 -5.984375 2.5 -5.867188 2.1875 -5.640625 C 1.882812 -5.421875 1.671875 -5.097656 1.546875 -4.671875 C 1.429688 -4.253906 1.375 -3.742188 1.375 -3.140625 C 1.375 -2.140625 1.546875 -1.410156 1.890625 -0.953125 C 2.222656 -0.503906 2.75 -0.28125 3.46875 -0.28125 C 4.019531 -0.28125 4.445312 -0.394531 4.75 -0.625 C 5.050781 -0.851562 5.265625 -1.179688 5.390625 -1.609375 C 5.515625 -2.046875 5.578125 -2.5625 5.578125 -3.15625 C 5.578125 -4.15625 5.40625 -4.878906 5.0625 -5.328125 C 4.726562 -5.773438 4.195312 -6 3.46875 -6 Z M 3.46875 0.109375 C 2.445312 0.109375 1.675781 -0.171875 1.15625 -0.734375 C 0.644531 -1.296875 0.390625 -2.097656 0.390625 -3.140625 C 0.390625 -5.285156 1.414062 -6.359375 3.46875 -6.359375 C 4.507812 -6.359375 5.28125 -6.082031 5.78125 -5.53125 C 6.289062 -4.976562 6.546875 -4.179688 6.546875 -3.140625 C 6.546875 -2.097656 6.289062 -1.296875 5.78125 -0.734375 C 5.269531 -0.171875 4.5 0.109375 3.46875 0.109375 Z M 3.46875 0.109375 "/></g></g></g><g fill="#000000" fill-opacity="1"><g transform="translate(14.424585, 19.669525)"><g><path d="M 3.578125 -0.4375 C 4.160156 -0.4375 4.617188 -0.570312 4.953125 -0.84375 C 5.285156 -1.125 5.453125 -1.550781 5.453125 -2.125 L 5.453125 -5.921875 L 4.59375 -6.046875 L 4.59375 -6.296875 L 6.75 -6.296875 L 6.75 -6.046875 L 5.9375 -5.921875 L 5.9375 -2.171875 C 5.9375 -1.398438 5.722656 -0.828125 5.296875 -0.453125 C 4.878906 -0.0859375 4.285156 0.09375 3.515625 0.09375 C 2.734375 0.09375 2.117188 -0.0820312 1.671875 -0.4375 C 1.234375 -0.789062 1.015625 -1.335938 1.015625 -2.078125 L 1.015625 -5.921875 L 0.203125 -6.046875 L 0.203125 -6.296875 L 2.71875 -6.296875 L 2.71875 -6.046875 L 1.921875 -5.921875 L 1.921875 -2.140625 C 1.921875 -1.003906 2.472656 -0.4375 3.578125 -0.4375 Z M 3.578125 -0.4375 "/></g></g></g><g fill="#000000" fill-opacity="1"><g transform="translate(21.37707, 19.669525)"><g/></g></g><g fill="#000000" fill-opacity="1"><g transform="translate(23.784435, 19.669525)"><g><path d="M 6.453125 0.140625 L 6.203125 0.140625 L 4.578125 -4.203125 L 2.890625 0.140625 L 2.640625 0.140625 L 0.5625 -5.921875 L 0.015625 -6.046875 L 0.015625 -6.296875 L 2.421875 -6.296875 L 2.421875 -6.046875 L 1.484375 -5.921875 L 3 -1.484375 L 4.6875 -5.859375 L 4.90625 -5.859375 L 6.53125 -1.484375 L 7.953125 -5.921875 L 6.984375 -6.046875 L 6.984375 -6.296875 L 9.0625 -6.296875 L 9.0625 -6.046875 L 8.515625 -5.921875 Z M 6.453125 0.140625 "/></g></g></g><g fill="#000000" fill-opacity="1"><g transform="translate(32.865039, 19.669525)"><g><path d="M 2.0625 -0.375 L 2.875 -0.25 L 2.875 0 L 0.34375 0 L 0.34375 -0.25 L 1.15625 -0.375 L 1.15625 -5.921875 L 0.34375 -6.046875 L 0.34375 -6.296875 L 2.875 -6.296875 L 2.875 -6.046875 L 2.0625 -5.921875 Z M 2.0625 -0.375 "/></g></g></g><g fill="#000000" fill-opacity="1"><g transform="translate(36.07166, 19.669525)"><g><path d="M 2.96875 -6.046875 L 2 -5.921875 L 2 -0.40625 L 3.234375 -0.40625 C 3.566406 -0.40625 3.851562 -0.410156 4.09375 -0.421875 C 4.34375 -0.441406 4.546875 -0.46875 4.703125 -0.5 L 5 -1.8125 L 5.296875 -1.8125 L 5.21875 0 L 0.28125 0 L 0.28125 -0.25 L 1.09375 -0.375 L 1.09375 -5.921875 L 0.28125 -6.046875 L 0.28125 -6.296875 L 2.96875 -6.296875 Z M 2.96875 -6.046875 "/></g></g></g><g fill="#000000" fill-opacity="1"><g transform="translate(41.945643, 19.669525)"><g><path d="M 2.96875 -6.046875 L 2 -5.921875 L 2 -0.40625 L 3.234375 -0.40625 C 3.566406 -0.40625 3.851562 -0.410156 4.09375 -0.421875 C 4.34375 -0.441406 4.546875 -0.46875 4.703125 -0.5 L 5 -1.8125 L 5.296875 -1.8125 L 5.21875 0 L 0.28125 0 L 0.28125 -0.25 L 1.09375 -0.375 L 1.09375 -5.921875 L 0.28125 -6.046875 L 0.28125 -6.296875 L 2.96875 -6.296875 Z M 2.96875 -6.046875 "/></g></g></g><g fill="#000000" fill-opacity="1"><g transform="translate(47.819627, 19.669525)"><g/></g></g><g fill="#000000" fill-opacity="1"><g transform="translate(50.226992, 19.669525)"><g><path d="M 5.421875 -5.921875 L 4.578125 -6.046875 L 4.578125 -6.296875 L 6.734375 -6.296875 L 6.734375 -6.046875 L 5.921875 -5.921875 L 5.921875 0 L 5.46875 0 L 1.578125 -5.671875 L 1.578125 -0.375 L 2.421875 -0.25 L 2.421875 0 L 0.28125 0 L 0.28125 -0.25 L 1.09375 -0.375 L 1.09375 -5.921875 L 0.28125 -6.046875 L 0.28125 -6.296875 L 2.1875 -6.296875 L 5.421875 -1.640625 Z M 5.421875 -5.921875 "/></g></g></g><g fill="#000000" fill-opacity="1"><g transform="translate(57.179477, 19.669525)"><g><path d="M 0.28125 -0.25 L 1.09375 -0.375 L 1.09375 -5.921875 L 0.28125 -6.046875 L 0.28125 -6.296875 L 5.015625 -6.296875 L 5.015625 -4.796875 L 4.703125 -4.796875 L 4.546875 -5.8125 C 4.367188 -5.84375 4.148438 -5.859375 3.890625 -5.859375 C 3.640625 -5.867188 3.347656 -5.875 3.015625 -5.875 L 2 -5.875 L 2 -3.421875 L 3.703125 -3.421875 L 3.84375 -4.171875 L 4.140625 -4.171875 L 4.140625 -2.234375 L 3.84375 -2.234375 L 3.703125 -3 L 2 -3 L 2 -0.421875 L 3.234375 -0.421875 C 3.640625 -0.421875 3.972656 -0.425781 4.234375 -0.4375 C 4.503906 -0.457031 4.703125 -0.476562 4.828125 -0.5 L 5.09375 -1.671875 L 5.40625 -1.671875 L 5.3125 0 L 0.28125 0 Z M 0.28125 -0.25 "/></g></g></g><g fill="#000000" fill-opacity="1"><g transform="translate(63.053461, 19.669525)"><g><path d="M 0.28125 -0.25 L 1.09375 -0.375 L 1.09375 -5.921875 L 0.28125 -6.046875 L 0.28125 -6.296875 L 5.015625 -6.296875 L 5.015625 -4.796875 L 4.703125 -4.796875 L 4.546875 -5.8125 C 4.367188 -5.84375 4.148438 -5.859375 3.890625 -5.859375 C 3.640625 -5.867188 3.347656 -5.875 3.015625 -5.875 L 2 -5.875 L 2 -3.421875 L 3.703125 -3.421875 L 3.84375 -4.171875 L 4.140625 -4.171875 L 4.140625 -2.234375 L 3.84375 -2.234375 L 3.703125 -3 L 2 -3 L 2 -0.421875 L 3.234375 -0.421875 C 3.640625 -0.421875 3.972656 -0.425781 4.234375 -0.4375 C 4.503906 -0.457031 4.703125 -0.476562 4.828125 -0.5 L 5.09375 -1.671875 L 5.40625 -1.671875 L 5.3125 0 L 0.28125 0 Z M 0.28125 -0.25 "/></g></g></g><g fill="#000000" fill-opacity="1"><g transform="translate(68.927445, 19.669525)"><g><path d="M 3.328125 -0.40625 L 3.34375 -0.40625 C 3.894531 -0.40625 4.332031 -0.515625 4.65625 -0.734375 C 4.988281 -0.953125 5.226562 -1.269531 5.375 -1.6875 C 5.519531 -2.101562 5.59375 -2.609375 5.59375 -3.203125 C 5.59375 -4.078125 5.351562 -4.738281 4.875 -5.1875 C 4.40625 -5.644531 3.726562 -5.875 2.84375 -5.875 L 2 -5.875 L 2 -0.4375 C 2.1875 -0.425781 2.390625 -0.414062 2.609375 -0.40625 C 2.828125 -0.40625 3.066406 -0.40625 3.328125 -0.40625 Z M 6.578125 -3.1875 C 6.578125 -1.050781 5.5 0.015625 3.34375 0.015625 L 1.09375 0 L 0.28125 0 L 0.28125 -0.25 L 1.09375 -0.375 L 1.09375 -5.921875 L 0.28125 -6.046875 L 0.28125 -6.296875 L 3.140625 -6.296875 C 4.253906 -6.296875 5.101562 -6.046875 5.6875 -5.546875 C 6.28125 -5.054688 6.578125 -4.269531 6.578125 -3.1875 Z M 6.578125 -3.1875 "/></g></g></g></g></g></svg>